<?xml version="1.0"?><svg width="600" height="600" xmlns="http://www.w3.org/2000/svg" xmlns:xlink="http://www.w3.org/1999/xlink">
 <defs>
  <linearGradient id="linearGradient574">
   <stop stop-color="#ff0700" offset="0" id="stop575"/>
   <stop stop-color="#e50a17" offset="1" id="stop576"/>
  </linearGradient>
  <radialGradient xlink:href="#linearGradient574" spreadMethod="pad" r="0.5" id="radialGradient577" gradientUnits="objectBoundingBox" fy="0.5" fx="0.5" cy="0.5" cx="0.5"/>
 </defs>
 <g>
  <title>Layer 1</title>
  <path fill="black" fill-rule="nonzero" stroke-width="1pt" id="path582" d="m290.255005,127.477997c0.458008,-4.827995 1.812988,-9.058998 3.397003,-13.629997c3.576996,-8.003998 7.662994,-15.393097 12.411987,-22.759903c4.496002,-6.179199 9.282013,-12.092499 14.085999,-18.035095c6.248993,-7.153702 11.520996,-11.302002 20.496002,-14.508701c9.830017,-0.979099 15.923004,0.419399 24.46701,5.371101c3.960999,3.441898 7.173981,7.052296 10.334991,11.239895l-13.095001,9.704102c-2.049011,-2.705498 -4.105988,-5.170898 -6.626984,-7.443901c-3.951019,-2.378494 -6.682007,-3.120193 -11.286011,-2.775993c-5.332001,1.709595 -8.03299,4.665596 -11.692017,8.865898c-4.501984,5.554901 -9.02298,11.061302 -13.252991,16.826599c-4.088989,6.262001 -7.617004,12.468002 -10.585999,19.335999c-0.830994,2.589005 -1.919006,5.058998 -1.664001,7.809998l-16.98999,0z"/>
  <path fill="black" fill-rule="nonzero" stroke-width="1pt" id="path590" d="m345.255005,158.727997c1.389984,-5.207993 4.063995,-9.455994 7.246002,-14.528992c4.877991,-6.861008 10.018982,-13.503998 15.161987,-20.169006c4.166016,-5.297997 8.179016,-10.205002 13.278992,-14.618996c6.854004,-4.506004 12.528015,-6.799004 20.676025,-7.866005c9.283997,1.649002 15.240997,4.625999 22.36499,10.800003c4.247009,5.089996 7.447998,10.25 10.496002,16.130005c0.201996,0.401001 0.402985,0.801987 0.604004,1.203995l-14.621002,7.535995c-0.187012,-0.366989 -0.373993,-0.733994 -0.561005,-1.100998c-2.251007,-4.255997 -4.487,-8.223999 -7.485992,-11.993996c-3.368011,-3.044006 -6.25,-4.963005 -10.690002,-6.005005c-4.218018,0.427002 -7.272003,2.244003 -10.792999,4.566002c-4.019012,3.416 -7.190002,7.442993 -10.513,11.535004c-4.89801,6.207001 -9.72702,12.418991 -14.235016,18.914993c-1.790985,3.050003 -5.470001,13.645996 -3.938995,5.597l-16.98999,0z"/>
  <path fill="black" fill-rule="nonzero" stroke-width="1pt" id="path592" d="m399.048004,211.378998c-2.09201,2.557007 6.11499,-6.733994 7.665009,-8.382004c6.005981,-6.291992 11.957977,-12.616989 17.768982,-19.088989c5.187012,-5.528 10.132996,-10.189011 16.610016,-14.141006c7.117981,-2.824997 12.665985,-3.834 20.311005,-3.181c8.330994,3.046997 13.691986,7.067001 19.737976,13.537003c3.078003,4.330002 5.39502,8.531998 7.433014,13.436996l-15.404999,5.699997c-1.225006,-3.112 -2.631012,-5.750992 -4.537994,-8.498001c-3.182007,-3.454987 -6.016022,-6.084 -10.389008,-7.853989c-3.502014,-0.396011 -6.365997,0.47699 -9.654999,1.699997c-4.75,2.776001 -8.321991,6.401993 -12.130005,10.356003c-5.919006,6.463989 -11.955994,12.815002 -17.908997,19.246994c-2.653992,3.050003 -5.144989,6.197998 -7.550995,9.365005l-11.949005,-12.197006z"/>
  <path fill="black" fill-rule="nonzero" stroke-width="1pt" id="path579" d="m119.977997,333.582001c-1.156998,-0.196014 -6.698997,0.420013 -9.240997,0.634003c-8.857002,0.895996 -17.693703,1.946991 -26.528496,3.042999c-6.566101,0.947998 -12.820503,1.747986 -18.939903,4.345001c-2.985802,2.036987 -4.0056,3.445984 -4.965702,6.932007c-0.447998,5.549988 -0.159897,11.144989 -0.212299,16.717987c-0.382698,5.920013 -1.192398,11.623016 -2.279198,17.45401l-15.952103,-3.277008c0.858902,-4.842987 1.545803,-9.608002 1.874702,-14.515015c0.040897,-6.655975 -0.193501,-13.190979 0.451599,-19.815979c2.746399,-8.794006 6.138901,-13.291016 13.840801,-18.364014c7.978695,-3.207977 15.665401,-4.47998 24.178501,-5.621002c8.939194,-1.086975 17.879097,-2.165985 26.815094,-3.273987c3.652,-0.466003 7.300003,-1.039001 10.958,-1.423004l0,17.164001z"/>
  <path fill="black" fill-rule="nonzero" stroke-width="1pt" id="path580" d="m152.477997,382.332001c6.389999,-1.20401 -1.751999,2.230988 -4.125,3.79599c-7.752991,5.481018 -15.414993,11.081024 -23.218994,16.489014c-7.350006,4.769989 -14.718002,8.867004 -22.681,12.520996c-2.907806,1.333008 -5.0233,1.627991 -5.224304,3.701996c-0.161797,6.227997 1.885704,11.140015 4.300301,16.847992c3.056,6.134003 6.028,12.243011 8.692001,18.559021l-15.200203,6.173981c-2.423195,-6.078003 -5.202194,-11.915985 -8.080498,-17.790985c-3.9478,-9.238007 -6.207497,-16.683014 -5.901901,-26.756012c3.103104,-9.009979 6.386902,-12.165985 15.038399,-15.954987c7.090202,-3.100006 13.591202,-6.619995 20.118202,-10.778992c7.768997,-5.34201 15.336998,-10.916016 22.896004,-16.551025c4.487991,-3.246979 8.030991,-6.079987 13.386993,-7.42099l0,17.164001z"/>
  <path fill="black" fill-rule="nonzero" stroke-width="1pt" id="path581" d="m213.494995,417.522003c-2.220993,6.756989 -6.483994,10.480988 -11.375,15.803009c-8.162994,8.947998 -16.365997,17.385986 -25.559998,25.280975c-5.46199,4.391998 -11.289993,8.466003 -15.578003,14.047028c-1.268997,3.207977 -1.584,6.384979 -1.72699,9.821991c0.950989,4.203003 4.039993,6.451996 7.162003,9.264008c5.691986,4.14798 11.633987,7.825989 17.563995,11.621979l-9.009003,13.735016c-6.242996,-4.205994 -12.578003,-8.212006 -18.673004,-12.634003c-7.541,-6.75 -11.742996,-11.726013 -13.565994,-21.765991c0.354996,-7.140015 1.494995,-12.830017 4.514999,-19.321014c5.630005,-6.829987 12.365997,-11.862 19.345993,-17.292999c8.588013,-7.260986 16.085999,-15.058014 23.526001,-23.485016c2.734009,-3.261993 8.709,-14.541992 6.38501,-5.074982l16.98999,0z"/>
  <path fill-rule="evenodd" fill="#000500" stroke-width="1pt" id="path595" d="m198.75,149.375a60,60.625 0 1 0 -120,0a60,60.625 0 1 0 120,0l-60,0l60,0z"/>
  <path fill-rule="evenodd" fill="url(#radialGradient577)" stroke-width="1pt" id="path583" d="m412.783936,208.256317a144.03421,164.766418 0 1 0 -288.068398,160.986084a144.03421,164.766418 0 1 0 288.068398,-160.986084l-144.03418,80.493042l144.03418,-80.493042z"/>
  <path fill-rule="evenodd" fill="#000001" stroke-width="1pt" id="path585" d="m308.75,189.375a40.625,40.625 0 1 0 -81.25,0a40.625,40.625 0 1 0 81.25,0l-40.625,0l40.625,0z"/>
  <path fill-rule="evenodd" fill="#000101" stroke-width="1pt" id="path586" d="m380,234.375a25.625,26.875 0 1 0 -51.25,0a25.625,26.875 0 1 0 51.25,0l-25.625,0l25.625,0z"/>
  <path fill-rule="evenodd" fill="#000101" stroke-width="1pt" id="path587" d="m421.25,351.25a37.5,37.5 0 1 0 -75,0a37.5,37.5 0 1 0 75,0l-37.5,0l37.5,0z"/>
  <path fill-rule="evenodd" fill="#000101" stroke-width="1pt" id="path588" d="m333.75,423.75a26.875,27.5 0 1 0 -53.75,0a26.875,27.5 0 1 0 53.75,0l-26.875,0l26.875,0z"/>
  <path fill-rule="evenodd" fill="#000101" stroke-width="1pt" id="path589" d="m253.75,378.75a40,41.25 0 1 0 -80,0a40,41.25 0 1 0 80,0l-40,0l40,0z"/>
  <path fill-rule="evenodd" fill="#000101" stroke-width="1pt" id="path591" d="m182.5,276.25a28.75,28.75 0 1 0 -57.5,0a28.75,28.75 0 1 0 57.5,0l-28.75,0l28.75,0z"/>
  <path fill="none" fill-rule="evenodd" stroke="black" stroke-width="3.75" id="path597" d="m87.802002,132.198105c7.5,-25.833305 -8.75,-42.916702 -22.5,-55"/>
  <path fill="none" fill-rule="evenodd" stroke="black" stroke-width="3.75" id="path599" d="m114.052002,107.198097c7.5,-25.833298 -8.75,-42.916695 -22.5,-55"/>
 </g>
</svg>